Coordinates
version=1
nRows=38
nColumns=12
inDegrees=yes

Units are S.I. units (second, meters, Newtons, ...)
Angles are in degrees

endheader
time	SC_y	SC_z	SC_x	AC_y	AC_z	AC_x	GH_y	GH_z	GH_yy	EL_x	PS_y
       0.0              -24.18          25.86           27.1          56.46         -8.272         -16.18          45.37          87.88          -47.6          112.1          28.32
   0.01191              -24.18          25.86           27.1          56.46         -8.274         -16.17          45.36          87.87         -47.59          112.1          28.32
   0.02382              -24.18          25.86           27.1          56.46         -8.275         -16.17          45.36          87.85         -47.58          112.1          28.32
   0.03574              -24.18          25.86          27.11          56.45         -8.276         -16.17          45.35          87.83         -47.56          112.1          28.31
   0.04765              -24.18          25.86          27.11          56.45         -8.278         -16.17          45.35          87.82         -47.55          112.1          28.31
   0.05956              -24.18          25.85          27.11          56.45         -8.279         -16.17          45.34           87.8         -47.54          112.1          28.31
   0.07147              -24.18          25.85          27.12          56.44         -8.281         -16.17          45.34          87.78         -47.52          112.1           28.3
   0.08338              -24.19          25.85          27.12          56.44         -8.282         -16.17          45.33          87.76         -47.51          112.1           28.3
    0.0953              -24.19          25.84          27.12          56.44         -8.284         -16.17          45.33          87.73         -47.49          112.1          28.29
    0.1072              -24.19          25.84          27.13          56.43         -8.286         -16.17          45.32          87.71         -47.47          112.1          28.29
    0.1191              -24.19          25.84          27.13          56.43         -8.288         -16.17          45.31          87.68         -47.45          112.1          28.28
     0.131              -24.19          25.83          27.14          56.42         -8.291         -16.17          45.31          87.65         -47.43          112.1          28.28
    0.1429               -24.2          25.83          27.14          56.42         -8.293         -16.16           45.3          87.62          -47.4          112.1          28.27
    0.1549               -24.2          25.82          27.15          56.41         -8.296         -16.16          45.29          87.59         -47.38          112.2          28.27
    0.1668               -24.2          25.82          27.16          56.41         -8.299         -16.16          45.28          87.55         -47.35          112.2          28.26
    0.1787               -24.2          25.81          27.16           56.4         -8.302         -16.16          45.27          87.51         -47.32          112.2          28.25
    0.1906              -24.21          25.81          27.17          56.39         -8.305         -16.16          45.26          87.47         -47.29          112.2          28.25
    0.2025              -24.21           25.8          27.18          56.38         -8.309         -16.16          45.25          87.42         -47.26          112.2          28.24
    0.2144              -24.21           25.8          27.19          56.37         -8.313         -16.15          45.23          87.37         -47.22          112.2          28.23
    0.2263              -24.22          25.79           27.2          56.37         -8.317         -16.15          45.22          87.32         -47.18          112.2          28.22
    0.2382              -24.22          25.78          27.21          56.36         -8.322         -16.15           45.2          87.25         -47.13          112.2          28.21
    0.2501              -24.22          25.77          27.22          56.34         -8.327         -16.14          45.18          87.19         -47.08          112.2          28.19
    0.2621              -24.23          25.76          27.23          56.33         -8.333         -16.14          45.17          87.11         -47.02          112.2          28.18
     0.274              -24.24          25.75          27.25          56.32          -8.34         -16.14          45.14          87.03         -46.96          112.3          28.17
    0.2859              -24.24          25.74          27.26           56.3         -8.347         -16.13          45.12          86.94         -46.89          112.3          28.15
    0.2978              -24.25          25.72          27.28          56.28         -8.355         -16.13          45.09          86.84         -46.82          112.3          28.13
    0.3097              -24.26          25.71           27.3          56.27         -8.364         -16.12          45.06          86.72         -46.73          112.3          28.11
    0.3216              -24.27          25.69          27.32          56.24         -8.374         -16.12          45.03          86.59         -46.63          112.3          28.09
    0.3335              -24.28          25.67          27.35          56.22         -8.386         -16.11          44.99          86.45         -46.52          112.4          28.06
    0.3454              -24.29          25.65          27.38          56.19         -8.399          -16.1          44.95          86.28          -46.4          112.4          28.03
    0.3574               -24.3          25.62          27.41          56.16         -8.414          -16.1           44.9          86.09         -46.26          112.4          27.99
    0.3693              -24.31          25.59          27.45          56.12         -8.431         -16.09          44.84          85.88          -46.1          112.5          27.95
    0.3812              -24.33          25.56          27.49          56.08         -8.451         -16.08          44.78          85.63         -45.91          112.5          27.91
    0.3931              -24.35          25.52          27.55          56.03         -8.474         -16.06           44.7          85.34         -45.69          112.6          27.86
     0.405              -24.37          25.48          27.61          55.98         -8.501         -16.05          44.61           85.0         -45.43          112.7          27.79
    0.4169               -24.4          25.42          27.68          55.91         -8.532         -16.03          44.51           84.6         -45.13          112.7          27.72
    0.4288              -24.43          25.36          27.76          55.83          -8.57         -16.01          44.38          84.12         -44.78          112.8          27.63
    0.4407              -24.47          25.28          27.86          55.73         -8.615         -15.98          44.24          83.55         -44.35          112.9          27.53
